<svg width="1400" height="420" viewBox="0 0 1400 420" fill="none" xmlns="http://www.w3.org/2000/svg">
  <defs>
    <linearGradient id="bg" x1="0" y1="0" x2="1400" y2="420" gradientUnits="userSpaceOnUse">
      <stop stop-color="#0B1020"/>
      <stop offset="1" stop-color="#23143D"/>
    </linearGradient>
    <linearGradient id="accent" x1="0" y1="0" x2="1" y2="1">
      <stop stop-color="#7C5CFF"/>
      <stop offset="1" stop-color="#00D1FF"/>
    </linearGradient>
    <filter id="blur" x="-20%" y="-20%" width="140%" height="140%">
      <feGaussianBlur stdDeviation="28"/>
    </filter>
  </defs>
  <rect width="1400" height="420" rx="34" fill="url(#bg)"/>
  <circle cx="170" cy="90" r="90" fill="#6D5BFF" fill-opacity="0.40" filter="url(#blur)"/>
  <circle cx="1210" cy="110" r="120" fill="#00D1FF" fill-opacity="0.30" filter="url(#blur)"/>
  <circle cx="1020" cy="360" r="100" fill="#FF3EC9" fill-opacity="0.20" filter="url(#blur)"/>
  <rect x="28" y="28" width="1344" height="364" rx="28" stroke="#8091FF" stroke-opacity="0.35"/>
  <text x="84" y="160" fill="white" font-size="88" font-family="Arial, Helvetica, sans-serif" font-weight="700">PianoGod</text>
  <text x="88" y="220" fill="#CBD5FF" font-size="28" font-family="Arial, Helvetica, sans-serif">A sleek browser piano with synth controls, MP3 / MIDI playback,</text>
  <text x="88" y="258" fill="#CBD5FF" font-size="28" font-family="Arial, Helvetica, sans-serif">and stage-ready UI energy.</text>
  <g transform="translate(960 90)">
    <rect x="0" y="0" width="300" height="210" rx="24" fill="#111628" stroke="#6B7BCA" stroke-opacity="0.45"/>
    <g transform="translate(24 24)">
      <rect x="0" y="0" width="32" height="150" rx="6" fill="#F8FAFF"/>
      <rect x="36" y="0" width="32" height="150" rx="6" fill="#F8FAFF"/>
      <rect x="72" y="0" width="32" height="150" rx="6" fill="#E2ECFF"/>
      <rect x="108" y="0" width="32" height="150" rx="6" fill="#F8FAFF"/>
      <rect x="144" y="0" width="32" height="150" rx="6" fill="#F8FAFF"/>
      <rect x="180" y="0" width="32" height="150" rx="6" fill="#F8FAFF"/>
      <rect x="216" y="0" width="32" height="150" rx="6" fill="#F8FAFF"/>
      <rect x="24" y="0" width="20" height="92" rx="5" fill="#171C2D"/>
      <rect x="60" y="0" width="20" height="92" rx="5" fill="#171C2D"/>
      <rect x="132" y="0" width="20" height="92" rx="5" fill="#171C2D"/>
      <rect x="168" y="0" width="20" height="92" rx="5" fill="#171C2D"/>
      <rect x="204" y="0" width="20" height="92" rx="5" fill="#171C2D"/>
    </g>
    <rect x="26" y="182" width="248" height="8" rx="4" fill="#232B45"/>
    <rect x="26" y="182" width="170" height="8" rx="4" fill="url(#accent)"/>
  </g>
</svg>